<svg width="38" height="38" viewBox="0 0 38 38" fill="none" xmlns="http://www.w3.org/2000/svg">
<g id="flat-color-icons:google">
<path id="Vector" d="M34.5253 15.899H33.25V15.8333H19V22.1667H27.9482C26.6427 25.8534 23.1348 28.5 19 28.5C13.7536 28.5 9.49996 24.2464 9.49996 19C9.49996 13.7536 13.7536 9.49999 19 9.49999C21.4217 9.49999 23.6249 10.4136 25.3024 11.9059L29.7809 7.42741C26.953 4.79195 23.1705 3.16666 19 3.16666C10.256 3.16666 3.16663 10.256 3.16663 19C3.16663 27.7439 10.256 34.8333 19 34.8333C27.7439 34.8333 34.8333 27.7439 34.8333 19C34.8333 17.9384 34.724 16.9021 34.5253 15.899Z" fill="#FFC107"/>
<path id="Vector_2" d="M4.99231 11.6304L10.1944 15.4454C11.6019 11.9605 15.0109 9.49999 19.0001 9.49999C21.4218 9.49999 23.625 10.4136 25.3025 11.9059L29.781 7.42741C26.9531 4.79195 23.1706 3.16666 19.0001 3.16666C12.9185 3.16666 7.64439 6.60011 4.99231 11.6304Z" fill="#FF3D00"/>
<path id="Vector_3" d="M19 34.8333C23.0898 34.8333 26.8059 33.2682 29.6155 30.723L24.7151 26.5762C23.072 27.8258 21.0643 28.5016 19 28.5C14.8818 28.5 11.385 25.874 10.0677 22.2094L4.90442 26.1875C7.52484 31.3152 12.8464 34.8333 19 34.8333Z" fill="#4CAF50"/>
<path id="Vector_4" d="M34.5254 15.8991H33.25V15.8333H19V22.1667H27.9482C27.3237 23.9213 26.1989 25.4546 24.7127 26.5771L24.715 26.5755L29.6155 30.7222C29.2687 31.0373 34.8333 26.9167 34.8333 19C34.8333 17.9384 34.7241 16.9021 34.5254 15.8991Z" fill="#1976D2"/>
</g>
</svg>
